<?xml version="1.0" standalone="no"?>
<!DOCTYPE svg PUBLIC "-//W3C//DTD SVG 20010904//EN"
 "http://www.w3.org/TR/2001/REC-SVG-20010904/DTD/svg10.dtd">
<svg version="1.0" xmlns="http://www.w3.org/2000/svg"
 width="512.000000pt" height="512.000000pt" viewBox="0 0 512.000000 512.000000"
 preserveAspectRatio="xMidYMid meet">
<metadata>
Created by potrace 1.11, written by Peter Selinger 2001-2013
</metadata>
<g transform="translate(0.000000,512.000000) scale(0.100000,-0.100000)"
fill="#000000" stroke="none">
<path d="M2436 4813 c-1 -2 -34 -5 -72 -9 -70 -6 -109 -10 -154 -18 -14 -2
-42 -7 -62 -9 -21 -3 -42 -8 -47 -11 -5 -4 -22 -8 -38 -10 -15 -3 -39 -7 -53
-11 -14 -4 -31 -7 -37 -7 -7 -1 -13 -5 -13 -10 0 -5 -4 -7 -8 -4 -7 4 -133
-36 -192 -61 -8 -3 -18 -5 -22 -5 -5 1 -8 -2 -8 -8 0 -6 -3 -9 -7 -9 -5 1 -11
0 -15 -1 -5 -1 -11 -3 -15 -4 -5 -1 -23 -10 -41 -19 -18 -10 -38 -15 -44 -11
-8 5 -9 2 -5 -10 4 -9 3 -15 -2 -12 -8 5 -88 -30 -101 -45 -3 -3 -21 -13 -41
-22 -20 -9 -40 -24 -43 -33 -4 -9 -13 -14 -21 -10 -8 3 -15 0 -15 -6 0 -6 -3
-9 -6 -5 -4 3 -12 1 -19 -6 -29 -27 -55 -46 -55 -40 0 3 -9 -4 -20 -17 -11
-13 -20 -19 -20 -14 0 5 -4 5 -8 -1 -4 -5 -29 -28 -57 -50 -27 -22 -57 -47
-66 -55 -54 -51 -95 -85 -101 -83 -5 2 -8 -1 -8 -7 0 -5 -25 -35 -55 -66 -30
-31 -52 -61 -48 -67 3 -6 2 -8 -3 -5 -11 7 -35 -17 -27 -26 4 -3 -1 -6 -10 -6
-9 0 -17 -3 -17 -7 0 -5 -18 -32 -40 -60 -22 -29 -38 -53 -35 -53 3 0 -4 -9
-15 -20 -11 -11 -20 -25 -20 -31 0 -5 -5 -7 -12 -3 -6 4 -8 3 -4 -4 3 -6 -1
-18 -10 -26 -8 -9 -13 -16 -9 -16 3 0 -4 -10 -15 -22 -11 -12 -18 -28 -16 -35
3 -7 0 -13 -7 -13 -7 0 -32 -43 -57 -95 -25 -52 -49 -95 -53 -95 -5 0 -5 -4
-2 -10 3 -5 2 -10 -4 -10 -6 0 -8 -7 -5 -15 4 -8 1 -15 -6 -15 -6 0 -9 -4 -5
-9 3 -5 0 -13 -6 -16 -5 -4 -8 -14 -5 -22 4 -9 2 -11 -6 -7 -8 5 -9 2 -5 -9 3
-10 3 -17 -1 -17 -6 0 -51 -124 -57 -160 -1 -3 -7 -25 -15 -50 -7 -25 -16 -61
-21 -80 -4 -19 -10 -46 -14 -60 -3 -14 -8 -41 -11 -60 -2 -19 -7 -48 -9 -65
-20 -141 -25 -410 -10 -535 4 -36 8 -75 8 -87 1 -13 4 -23 7 -23 3 0 7 -12 8
-27 2 -28 7 -56 18 -121 4 -17 9 -32 13 -32 3 0 7 -15 8 -33 2 -19 10 -50 18
-70 8 -21 12 -37 9 -37 -4 0 -2 -6 3 -12 5 -7 18 -39 28 -71 9 -32 23 -64 30
-70 6 -6 10 -19 7 -29 -2 -10 1 -18 7 -18 7 0 9 -4 6 -10 -3 -5 -1 -10 6 -10
7 0 9 -3 6 -6 -3 -4 0 -16 8 -28 8 -11 15 -29 15 -39 0 -10 4 -15 10 -12 9 5
15 -15 11 -37 0 -5 3 -8 7 -8 5 0 14 -16 22 -35 8 -19 17 -35 22 -35 4 0 8 -7
8 -16 0 -8 4 -13 8 -10 4 2 9 -4 9 -16 1 -11 11 -28 22 -37 11 -10 18 -21 14
-25 -3 -3 -1 -6 6 -6 7 0 9 -5 6 -10 -3 -6 1 -13 9 -16 9 -3 14 -9 11 -13 -2
-4 7 -19 20 -33 13 -14 21 -29 18 -32 -4 -3 -2 -6 4 -6 6 0 19 -13 30 -29 58
-91 346 -379 390 -389 7 -2 11 -8 8 -13 -4 -5 1 -9 10 -9 9 0 27 -12 40 -26
14 -15 25 -24 25 -20 0 4 7 1 15 -6 34 -31 43 -36 49 -31 3 4 6 1 6 -5 0 -7 6
-12 14 -12 8 0 21 -8 28 -17 7 -10 20 -19 28 -21 8 -2 22 -10 31 -18 9 -8 19
-11 22 -7 4 3 7 1 7 -6 0 -7 4 -10 9 -6 5 3 12 1 15 -4 5 -8 73 -42 186 -94
19 -8 38 -13 42 -11 4 3 8 0 8 -5 0 -6 6 -11 14 -11 7 0 31 -8 52 -17 22 -9
44 -18 49 -19 6 -2 19 -5 30 -8 11 -3 34 -9 52 -15 17 -5 34 -7 37 -3 3 3 6 1
6 -4 0 -5 12 -11 26 -12 15 -1 33 -7 40 -12 8 -8 14 -8 19 1 6 8 9 8 15 -1 4
-7 21 -12 36 -12 16 0 33 -3 39 -6 5 -3 21 -7 35 -9 14 -1 41 -5 60 -7 169
-24 413 -24 565 0 22 3 51 7 65 8 14 2 36 6 50 9 14 4 39 9 55 11 34 5 152 35
175 43 8 3 21 7 29 9 8 1 17 8 21 14 5 9 9 9 14 1 5 -7 14 -6 31 5 13 9 29 13
34 10 5 -4 14 1 19 10 5 9 12 15 15 15 20 -2 67 13 67 21 0 5 5 6 10 3 6 -3
10 -2 10 3 0 6 7 13 16 16 8 3 12 2 9 -4 -3 -5 23 7 57 26 35 20 68 37 73 38
6 1 25 12 43 24 18 13 32 20 32 15 0 -4 4 -3 8 2 8 11 94 69 103 70 3 0 13 8
23 17 10 10 22 18 27 18 5 0 23 14 41 30 17 17 33 28 36 26 2 -3 24 15 48 39
24 25 44 42 44 39 0 -2 6 1 14 8 8 7 11 17 8 22 -3 5 0 6 6 2 6 -4 18 5 28 19
9 13 20 22 25 19 5 -3 9 -2 9 3 0 4 36 46 79 92 44 47 78 88 75 93 -3 4 2 8
10 8 9 0 16 4 16 8 0 5 8 18 18 30 46 54 51 62 44 62 -4 0 1 5 11 11 9 5 17
17 17 24 0 8 5 15 10 15 6 0 10 6 10 13 0 8 9 22 20 32 11 10 18 20 16 23 -3
2 2 11 10 19 8 8 11 19 8 25 -4 6 -3 8 3 5 6 -4 16 6 23 21 16 33 16 32 25 59
4 12 13 24 21 27 8 3 14 12 14 20 0 8 11 35 24 60 14 26 22 46 20 46 -3 0 1
10 8 23 7 12 13 24 13 27 0 3 6 14 12 25 5 11 18 45 27 75 10 30 20 62 23 70
7 16 11 30 17 58 3 9 5 17 6 17 1 0 4 11 6 25 2 13 8 27 12 30 4 3 8 19 9 35
2 28 9 70 13 70 1 0 9 49 15 100 2 17 4 30 5 30 3 0 7 42 14 130 8 105 7 230
0 330 -4 44 -7 92 -7 108 -1 15 -4 27 -8 27 -4 0 -6 7 -5 16 3 19 -16 122 -40
217 -3 12 -7 29 -9 37 -2 8 -4 15 -5 15 -1 0 -3 8 -5 19 -8 41 -70 211 -80
218 -5 4 -6 8 -1 8 5 0 3 6 -3 13 -6 8 -8 17 -4 20 3 4 1 7 -5 7 -7 0 -11 3
-10 8 2 11 -61 144 -78 163 -8 9 -16 26 -17 38 -1 11 -4 21 -8 21 -4 0 -20 21
-35 48 -15 26 -30 49 -33 52 -3 3 -12 17 -20 33 -8 15 -18 27 -23 27 -4 0 -8
7 -8 16 0 8 -4 12 -10 9 -5 -3 -10 1 -10 9 0 8 -7 19 -16 24 -9 5 -15 12 -14
16 3 11 -69 94 -167 195 -46 46 -83 88 -83 93 0 5 -5 8 -11 6 -6 -2 -33 18
-59 45 -27 27 -54 46 -60 42 -6 -3 -9 -1 -8 7 2 7 -3 12 -9 11 -7 -2 -13 4
-13 13 0 8 -4 12 -10 9 -5 -3 -10 -1 -10 5 0 6 -4 9 -8 6 -5 -3 -15 4 -22 15
-8 10 -18 19 -22 19 -4 0 -26 13 -50 29 -73 49 -219 131 -234 131 -8 0 -14 5
-14 10 0 6 -7 10 -15 10 -8 0 -30 9 -50 20 -19 11 -36 19 -38 19 -1 0 -15 4
-30 10 -16 6 -35 11 -43 11 -8 0 -14 5 -14 10 0 6 -11 10 -24 10 -14 0 -28 5
-31 10 -4 6 -11 8 -16 5 -5 -4 -9 -1 -9 5 0 6 -5 8 -11 4 -6 -3 -21 -1 -32 5
-31 16 -179 51 -189 45 -4 -3 -8 0 -8 6 0 6 -4 8 -10 5 -5 -3 -15 -3 -21 1 -7
4 -26 8 -43 10 -17 2 -47 6 -66 9 -69 11 -105 11 -119 1 -11 -8 -13 -8 -7 2 5
8 -1 12 -21 13 -81 3 -265 4 -267 2z m1505 -500 c13 -16 12 -17 -3 -4 -17 13
-22 21 -14 21 2 0 10 -8 17 -17z"/>
</g>
</svg>
